# xmcd
#
# Track frame offsets: 
#        150
#        15420
#        27987
#        48170
#        56455
#        65382
#        83257
#        92000
#        107272
#        119690
#        131085
#        142560
#        157825
#        167092
#        177837
#        189092
#        202687
#        215872
#        228547
#        237782
#
# Disc length: 3309 seconds
#
# Revision: 0
# Processed by: cddbd v1.5.1PL0 Copyright (c) Steve Scherf et al.
# Submitted via: ExactAudioCopy v0.95a5
#
DISCID=ef0ceb14
DTITLE=Various Artist - Country Love - CD2
DYEAR=1998
DGENRE=Country
TTITLE0=For The Good Times - Kenny Rogers and The First Edition
TTITLE1=In The Misty Moonlight - Jerry Wallace
TTITLE2=Love Hurts - Gram Parsons, Emmylou Harris
TTITLE3=Have You Ever Been Lonely? - Slim Whitman
TTITLE4=Born A Woman - Sandy Posey
TTITLE5=Lookin' For Love - Johnny Lee
TTITLE6=Love's Gonna Live Here - Waylon Jennings
TTITLE7=Blanket On The Ground - Billie Joe Spears
TTITLE8=Behind Closed Dorrs - Charlie Rich
TTITLE9=Talk Back Trembling Lips - George Jones
TTITLE10=That's How I Got To Memphis - Bobby Bare
TTITLE11=Ready For The Times To Get Better - Crystal Gayle
TTITLE12=Hello Walls - Faron Young
TTITLE13=What I've Got In Mind - Billie Joe Spears
TTITLE14=Follow Me Back To Louisville - Don Williams
TTITLE15=Baby I Want To Love You - Freddy Fender
TTITLE16=My Special Angel - Bobby Helms
TTITLE17=Making Bellive - Kitty Wells
TTITLE18=Blue Blue Day - The Kendalls
TTITLE19=You Win Again - Johnny Cash
EXTD=
EXTT0=
EXTT1=
EXTT2=
EXTT3=
EXTT4=
EXTT5=
EXTT6=
EXTT7=
EXTT8=
EXTT9=
EXTT10=
EXTT11=
EXTT12=
EXTT13=
EXTT14=
EXTT15=
EXTT16=
EXTT17=
EXTT18=
EXTT19=
PLAYORDER=
